<?xml version="1.0" encoding="iso-8859-1"?>
<!-- Uploaded to: SVG Repo, www.svgrepo.com, Generator: SVG Repo Mixer Tools -->
<svg fill="#000000" height="800px" width="800px" version="1.1" id="Layer_1" xmlns="http://www.w3.org/2000/svg" xmlns:xlink="http://www.w3.org/1999/xlink" 
	 viewBox="0 0 512 512" xml:space="preserve">
<g>
	<g>
		<path d="M451.627,31.439h-32.756c-10.428,0-18.883,8.455-18.883,18.883c0,10.428,8.455,18.883,18.883,18.883h32.756
			c12.465,0,22.607,10.193,22.607,22.66c0,12.465-10.141,22.66-22.607,22.66H311.094c-41.408,0-75.686,33.841-75.686,75.249v25.461
			h37.766v-25.461c0-20.584,17.336-37.483,37.92-37.483h140.534c33.289,0,60.373-27.135,60.373-60.426
			C512,58.573,484.917,31.439,451.627,31.439z"/>
	</g>
</g>
<g>
	<g>
		<path d="M414.821,252.999H96.279C43.073,252.999,0,296.506,0,349.712v32.357c0,40.615,18.082,76.476,46.229,91.36
			c23.104,12.217,49.983,8.544,77.833-10.427c2.09-1.424,4.505-2.289,7.035-2.289h248.758c2.532,0,5.004,0.866,7.095,2.294
			c27.907,19.04,54.783,22.692,77.925,10.469c28.145-14.87,46.224-50.673,46.224-91.294v-32.469
			C511.1,296.506,468.027,252.999,414.821,252.999z M138.475,368.815h-22.66v22.66c0,6.953-5.636,12.589-12.589,12.589
			c-6.953,0-12.589-5.636-12.589-12.589v-22.66h-22.66c-6.953,0-12.589-5.636-12.589-12.589c0-6.953,5.636-12.589,12.589-12.589
			h22.66v-22.66c0-6.953,5.636-12.589,12.589-12.589c6.953,0,12.589,5.636,12.589,12.589v22.66h22.66
			c6.953,0,12.589,5.636,12.589,12.589C151.064,363.179,145.428,368.815,138.475,368.815z M235.408,412.875h-27.695
			c-6.953,0-12.589-5.636-12.589-12.589c0-6.953,5.636-12.589,12.589-12.589h27.695c6.953,0,12.589,5.636,12.589,12.589
			C247.997,407.239,242.361,412.875,235.408,412.875z M314.717,412.875h-28.954c-6.953,0-12.589-5.636-12.589-12.589
			c0-6.953,5.636-12.589,12.589-12.589h28.954c6.953,0,12.589,5.636,12.589,12.589C327.305,407.239,321.669,412.875,314.717,412.875
			z M409.166,412.887c-12.069,0-21.853-9.784-21.853-21.851c0-12.069,9.784-21.853,21.853-21.853s21.853,9.784,21.853,21.853
			C431.018,403.103,421.234,412.887,409.166,412.887z M446.934,362.528c-12.069,0-21.853-9.784-21.853-21.853
			c0-12.069,9.784-21.851,21.853-21.851s21.853,9.784,21.853,21.851C468.787,352.746,459.003,362.528,446.934,362.528z"/>
	</g>
</g>
</svg>